<svg xmlns="http://www.w3.org/2000/svg" width="24" height="24" fill="none" viewBox="0 0 24 24">
  <path fill="#000" fill-rule="evenodd" d="M2 12.103C2 6.533 6.533 2 12.103 2 17.67 2 22.27 6.5 22.27 12.103a10.13 10.13 0 0 1-10.135 10.135C6.533 22.238 2 17.672 2 12.103Zm10.103-8.46c-4.659 0-8.492 3.77-8.492 8.46a8.493 8.493 0 0 0 8.492 8.492c4.69 0 8.492-3.771 8.492-8.46 0-4.69-3.834-8.492-8.492-8.492Zm-2.565 7.74a1.282 1.282 0 1 1-2.171-.925l-1.518-.39a1 1 0 1 1 .497-1.937l3.859.99a1 1 0 1 1-.497 1.938L9.48 11c.038.12.058.25.058.382Zm6.412 1.282a1.282 1.282 0 0 0 .878-2.217l1.512-.378a1 1 0 1 0-.485-1.94l-4 1a1 1 0 0 0 .485 1.94l.395-.099a1.281 1.281 0 0 0 1.215 1.694ZM8.698 16.9a5.667 5.667 0 0 1 6.8 0 1 1 0 0 0 1.2-1.6 7.667 7.667 0 0 0-9.2 0 1 1 0 1 0 1.2 1.6Z" clip-rule="evenodd"/>
</svg>
