<svg xmlns="http://www.w3.org/2000/svg" width="24" height="24" fill="none" viewBox="0 0 24 24">
  <path fill="#000" fill-rule="evenodd" d="M5 1a3 3 0 0 0-3 3v16a3 3 0 0 0 3 3h12a3 3 0 0 0 3-3v-1a1 1 0 1 0-2 0v1a1 1 0 0 1-1 1H5a1 1 0 0 1-1-1V4a1 1 0 0 1 1-1h12a1 1 0 0 1 1 1 1 1 0 1 0 2 0 3 3 0 0 0-3-3H5Zm1 6a1 1 0 0 0 0 2h4a1 1 0 1 0 0-2H6Zm0 4a1 1 0 1 0 0 2h2a1 1 0 1 0 0-2H6Zm-1 5a1 1 0 0 1 1-1h5a1 1 0 1 1 0 2H6a1 1 0 0 1-1-1Zm12-.5a4 4 0 1 0 0-8 4 4 0 0 0 0 8Zm0 2a6 6 0 1 0 0-12 6 6 0 0 0 0 12Zm-.826-5.705.101.101c.017.019.035.036.053.053l1.508 1.508c.325.325.904.271 1.295-.12.39-.39.444-.97.12-1.294l-.779-.778.831-.709c.368-.313.375-.908.016-1.328-.358-.42-.947-.507-1.314-.193l-1.607 1.371a1.199 1.199 0 0 0-.069.059l-.073.063a.809.809 0 0 0-.276.544c-.054.269.008.537.194.723Z" clip-rule="evenodd"/>
</svg>
