<svg xmlns="http://www.w3.org/2000/svg" width="24" height="24" fill="none" viewBox="0 0 24 24">
  <path fill="#000" fill-rule="evenodd" d="M12.005 1.9c-5.57 0-10.102 4.533-10.102 10.103 0 5.57 4.533 10.135 10.134 10.135a10.13 10.13 0 0 0 10.135-10.135C22.172 6.4 17.574 1.9 12.005 1.9ZM3.513 12.003c0-4.69 3.834-8.46 8.492-8.46 4.658 0 8.492 3.802 8.492 8.492 0 4.689-3.802 8.46-8.492 8.46a8.493 8.493 0 0 1-8.492-8.492Zm3.908.958a.785.785 0 0 0-.66.333c-.14.208-.216.463-.142.724.685 2.415 2.904 4.112 5.386 4.112 2.546 0 4.701-1.633 5.386-4.112a.772.772 0 0 0-.144-.729.786.786 0 0 0-.657-.328H7.42Zm4.584 3.494c-1.377 0-2.612-.717-3.347-1.851h6.698a3.916 3.916 0 0 1-3.35 1.851Zm-3.847-6.12a1.282 1.282 0 1 0 0-2.564 1.282 1.282 0 0 0 0 2.565Zm8.977-1.282a1.282 1.282 0 1 1-2.565 0 1.282 1.282 0 0 1 2.565 0Z" clip-rule="evenodd"/>
</svg>
