<svg xmlns="http://www.w3.org/2000/svg" width="24" height="24" fill="none" viewBox="0 0 24 24">
  <path fill="#000" fill-rule="evenodd" d="M1.902 12.003C1.902 6.433 6.436 1.9 12.005 1.9s10.167 4.5 10.167 10.103a10.13 10.13 0 0 1-10.135 10.135c-5.602 0-10.135-4.566-10.135-10.135Zm10.103-8.46c-4.658 0-8.492 3.77-8.492 8.46a8.493 8.493 0 0 0 8.492 8.492c4.69 0 8.492-3.771 8.492-8.46 0-4.69-3.834-8.492-8.492-8.492ZM8.6 16.8a5.667 5.667 0 0 1 6.8 0 1 1 0 0 0 1.2-1.6 7.667 7.667 0 0 0-9.2 0 1 1 0 0 0 1.2 1.6Zm4.431-9.049a1 1 0 0 1 1.217-.72l3.86.99a1 1 0 1 1-.498 1.938l-.563-.145a1.282 1.282 0 1 1-2.015-.517l-1.28-.328a1 1 0 0 1-.72-1.217Zm-2.789 1.22a1 1 0 1 0-.485-1.941l-4 1a1 1 0 0 0 .486 1.94l.732-.183a1.282 1.282 0 1 0 1.994-.498l1.273-.319Z" clip-rule="evenodd"/>
</svg>
