<svg xmlns="http://www.w3.org/2000/svg" width="24" height="24" fill="none" viewBox="0 0 24 24">
  <path fill="#000" fill-rule="evenodd" d="M20.171 3.188H18.61v-.816a.788.788 0 0 0-.781-.782.788.788 0 0 0-.782.782v.816H7.211v-.816a.788.788 0 0 0-.782-.782.788.788 0 0 0-.78.782v.816H4.05a2.455 2.455 0 0 0-2.45 2.45v9.872c0 1.35 1.1 2.45 2.45 2.45h7.966a.788.788 0 0 0 .781-.781.788.788 0 0 0-.781-.781H4.05a.864.864 0 0 1-.852-.853V9.331h17.86v3.729c0 .426.356.78.782.78a.788.788 0 0 0 .781-.78V5.603c0-1.314-1.1-2.415-2.45-2.415ZM3.162 7.733v-2.13c0-.462.391-.852.853-.852h1.562v.355c0 .426.355.781.781.781a.788.788 0 0 0 .781-.781V4.75h9.8v.355c0 .426.356.781.782.781a.788.788 0 0 0 .781-.781V4.75h1.563c.461 0 .852.39.852.852v2.13H3.162Zm15.293 5.824a4.531 4.531 0 0 0-4.545 4.545 4.531 4.531 0 0 0 4.545 4.545A4.531 4.531 0 0 0 23 18.102a4.554 4.554 0 0 0-4.545-4.545Zm0 7.492a2.94 2.94 0 0 1-2.947-2.947 2.94 2.94 0 0 1 2.947-2.947 2.94 2.94 0 0 1 2.947 2.947 2.94 2.94 0 0 1-2.947 2.947Zm-1.1-3.764h2.2c.427 0 .782.355.782.781a.788.788 0 0 1-.781.782h-2.202a.788.788 0 0 1-.781-.782c0-.426.355-.78.781-.78Z" clip-rule="evenodd"/>
</svg>
