<svg xmlns="http://www.w3.org/2000/svg" width="24" height="24" fill="none" viewBox="0 0 24 24">
  <path fill="#000" fill-rule="evenodd" d="M11.542 18a9.005 9.005 0 0 1-8.488-6 9.005 9.005 0 0 1 16.976 0 9.004 9.004 0 0 1-8.488 6Zm0-14C6.616 4 2.447 7.239 1.046 11.7a1 1 0 0 0 0 .6c1.401 4.462 5.57 7.7 10.496 7.7 4.927 0 9.095-3.239 10.496-7.7a1 1 0 0 0 0-.6C20.637 7.24 16.47 4 11.542 4Zm-1.414 6.586a2 2 0 1 1 2.828 2.828 2 2 0 0 1-2.828-2.828ZM11.542 8a4 4 0 1 0 0 8 4 4 0 0 0 0-8Z" clip-rule="evenodd"/>
</svg>
