<svg width="22" height="22" viewBox="0 0 22 22" stroke="currentColor" fill="currentColor" xmlns="http://www.w3.org/2000/svg">
<path fill-rule="evenodd" clip-rule="evenodd" d="M3.875 2H18.125C19.1605 2 20 2.83947 20 3.875V18.125C20 19.1605 19.1605 20 18.125 20H3.875C2.83947 20 2 19.1605 2 18.125V3.875C2 2.83947 2.83947 2 3.875 2ZM0.875 3.875C0.875 2.21815 2.21815 0.875 3.875 0.875H18.125C19.7819 0.875 21.125 2.21815 21.125 3.875V18.125C21.125 19.7819 19.7819 21.125 18.125 21.125H3.875C2.21815 21.125 0.875 19.7819 0.875 18.125V3.875ZM16.4994 13.2725C17.0152 13.9934 17.3829 14.8094 17.5813 15.6733C17.6387 15.9226 17.6389 16.1818 17.5817 16.4312C17.5245 16.6806 17.4115 16.9138 17.2511 17.1133C17.094 17.3122 16.8937 17.4729 16.6654 17.5833C16.4371 17.6936 16.1867 17.7506 15.9332 17.75H6.06693C5.81338 17.7506 5.56301 17.6936 5.33471 17.5833C5.1064 17.4729 4.90613 17.3122 4.74899 17.1133C4.58912 16.9135 4.47661 16.6801 4.4199 16.4306C4.3632 16.1811 4.36379 15.9219 4.42162 15.6727C4.61947 14.8085 4.98711 13.9923 5.50315 13.2714C6.01919 12.5506 6.67335 11.9395 7.42762 11.4736C6.91773 10.807 6.60445 10.011 6.52317 9.17562C6.4419 8.34026 6.59586 7.49881 6.96767 6.74636C7.33948 5.9939 7.91431 5.36042 8.62723 4.91749C9.34014 4.47456 10.1627 4.23984 11.002 4.23984C11.8413 4.23984 12.6639 4.47456 13.3768 4.91749C14.0897 5.36042 14.6646 5.9939 15.0364 6.74636C15.4082 7.49881 15.5622 8.34026 15.4809 9.17562C15.3996 10.011 15.0863 10.807 14.5764 11.4736C15.33 11.9403 15.9836 12.5517 16.4994 13.2725ZM12.8751 5.94379C12.3201 5.57295 11.6676 5.375 11.0001 5.375C10.1052 5.3759 9.2473 5.73176 8.61456 6.36451C7.98182 6.99725 7.62595 7.85517 7.62506 8.75C7.62506 9.41752 7.823 10.07 8.19385 10.6251C8.5647 11.1801 9.0918 11.6127 9.7085 11.8681C10.3252 12.1235 11.0038 12.1904 11.6585 12.0602C12.3132 11.9299 12.9145 11.6085 13.3865 11.1365C13.8585 10.6645 14.18 10.0631 14.3102 9.40843C14.4404 8.75375 14.3736 8.07515 14.1181 7.45845C13.8627 6.84175 13.4301 6.31464 12.8751 5.94379ZM16.1769 16.5698C16.2529 16.5331 16.3194 16.4794 16.3714 16.4129C16.4258 16.3454 16.4643 16.2665 16.4839 16.1821C16.5036 16.0976 16.504 16.0099 16.485 15.9253C16.3105 15.1638 15.9781 14.4474 15.5093 13.8224C15.0406 13.1974 14.4458 12.6778 13.7636 12.2971C12.9763 12.9148 12.0045 13.2506 11.0037 13.2506C10.003 13.2506 9.03116 12.9148 8.24381 12.2971C7.56007 12.6763 6.96384 13.1951 6.4939 13.8199C6.02396 14.4447 5.69085 15.1615 5.51624 15.9236C5.49692 16.0083 5.497 16.0964 5.51648 16.1811C5.53596 16.2659 5.57434 16.3451 5.62874 16.4129C5.68073 16.4794 5.74726 16.5331 5.82322 16.5698C5.89917 16.6066 5.98255 16.6255 6.06693 16.625H15.9332C16.0176 16.6255 16.1009 16.6066 16.1769 16.5698Z" fill="currentColor" stroke="currentColor"/>
</svg>
