<svg width="20" height="18" viewBox="0 0 20 18" stroke="currentColor" fill="none" xmlns="http://www.w3.org/2000/svg">
<path d="M5 1V17M15 1V17M1 5H5M15 5H19M1 9H19M1 13H5M15 13H19M2 17H18C18.2652 17 18.5196 16.8946 18.7071 16.7071C18.8946 16.5196 19 16.2652 19 16V2C19 1.73478 18.8946 1.48043 18.7071 1.29289C18.5196 1.10536 18.2652 1 18 1H2C1.73478 1 1.48043 1.10536 1.29289 1.29289C1.10536 1.48043 1 1.73478 1 2V16C1 16.2652 1.10536 16.5196 1.29289 16.7071C1.48043 16.8946 1.73478 17 2 17Z" stroke="currentColor" stroke-width="2" stroke-linecap="round" stroke-linejoin="round" />
</svg>
